<svg xmlns="http://www.w3.org/2000/svg" xmlns:xlink="http://www.w3.org/1999/xlink" width="102.336" height="102.28" viewBox="0 0 102.336 102.28">
  <defs>
    <clipPath id="clip-path">
      <rect id="Rectangle_5" data-name="Rectangle 5" width="90.616" height="90.55" fill="none"/>
    </clipPath>
    <clipPath id="clip-path-2">
      <rect id="Rectangle_6" data-name="Rectangle 6" width="90.616" height="90.55" fill="#fff"/>
    </clipPath>
  </defs>
  <g id="logo-light" transform="translate(-1851.824 -418.708)">
    <g id="Group_28" data-name="Group 28" transform="translate(1851.824 431.319) rotate(-8)">
      <text id="_" data-name=" " transform="translate(71.002 74.425) rotate(140.596)" fill="#edeeef" font-size="7" font-family="MyriadPro-Regular, Myriad Pro"><tspan x="0" y="0"> </tspan></text>
      <text id="_2" data-name=" " transform="matrix(-0.819, 0.573, -0.573, -0.819, 68.673, 76.322)" fill="#edeeef" font-size="7" font-family="MyriadPro-Regular, Myriad Pro"><tspan x="0" y="0"> </tspan></text>
      <text id="_3" data-name=" " transform="translate(66.246 78.007) rotate(149.364)" fill="#edeeef" font-size="7" font-family="MyriadPro-Regular, Myriad Pro"><tspan x="0" y="0"> </tspan></text>
      <text id="_4" data-name=" " transform="matrix(-0.897, 0.442, -0.442, -0.897, 63.661, 79.526)" fill="#edeeef" font-size="7" font-family="MyriadPro-Regular, Myriad Pro"><tspan x="0" y="0"> </tspan></text>
      <text id="_5" data-name=" " transform="matrix(-0.929, 0.371, -0.371, -0.929, 60.977, 80.835)" fill="#edeeef" font-size="7" font-family="MyriadPro-Regular, Myriad Pro"><tspan x="0" y="0"> </tspan></text>
      <text id="_6" data-name=" " transform="translate(58.207 81.928) rotate(162.635)" fill="#edeeef" font-size="7" font-family="MyriadPro-Regular, Myriad Pro"><tspan x="0" y="0"> </tspan></text>
      <text id="_7" data-name=" " transform="translate(55.367 82.806) rotate(167.048)" fill="#edeeef" font-size="7" font-family="MyriadPro-Regular, Myriad Pro"><tspan x="0" y="0"> </tspan></text>
      <g id="Group_21" data-name="Group 21" transform="translate(0 0)">
        <g id="Group_20" data-name="Group 20" clip-path="url(#clip-path)">
          <text id="_8" data-name=" " transform="translate(52.436 83.468) rotate(171.493)" fill="#edeeef" font-size="7" font-family="MyriadPro-Regular, Myriad Pro"><tspan x="0" y="0"> </tspan></text>
          <text id="_9" data-name=" " transform="translate(49.517 83.893) rotate(175.831)" fill="#edeeef" font-size="7" font-family="MyriadPro-Regular, Myriad Pro"><tspan x="0" y="0"> </tspan></text>
          <text id="_10" data-name=" " transform="translate(46.459 84.117) rotate(-179.071)" fill="#edeeef" font-size="7" font-family="MyriadPro-Regular, Myriad Pro"><tspan x="0" y="0"> </tspan></text>
          <text id="_11" data-name=" " transform="translate(43.553 84.079) rotate(-175.468)" fill="#edeeef" font-size="7" font-family="MyriadPro-Regular, Myriad Pro"><tspan x="0" y="0"> </tspan></text>
          <text id="_12" data-name=" " transform="translate(40.587 83.832) rotate(-171.088)" fill="#edeeef" font-size="7" font-family="MyriadPro-Regular, Myriad Pro"><tspan x="0" y="0"> </tspan></text>
        </g>
      </g>
      <text id="_13" data-name=" " transform="translate(37.624 83.356) rotate(-166.645)" fill="#edeeef" font-size="7" font-family="MyriadPro-Regular, Myriad Pro"><tspan x="0" y="0"> </tspan></text>
      <text id="_14" data-name=" " transform="translate(34.735 82.659) rotate(-162.235)" fill="#edeeef" font-size="7" font-family="MyriadPro-Regular, Myriad Pro"><tspan x="0" y="0"> </tspan></text>
      <text id="_15" data-name=" " transform="translate(31.877 81.731) rotate(-157.777)" fill="#edeeef" font-size="7" font-family="MyriadPro-Regular, Myriad Pro"><tspan x="0" y="0"> </tspan></text>
      <text id="_16" data-name=" " transform="translate(29.146 80.605) rotate(-153.401)" fill="#edeeef" font-size="7" font-family="MyriadPro-Regular, Myriad Pro"><tspan x="0" y="0"> </tspan></text>
      <text id="_17" data-name=" " transform="matrix(-0.857, -0.515, 0.515, -0.857, 26.473, 79.251)" fill="#edeeef" font-size="7" font-family="MyriadPro-Regular, Myriad Pro"><tspan x="0" y="0"> </tspan></text>
      <text id="_18" data-name=" " transform="translate(23.921 77.704) rotate(-144.58)" fill="#edeeef" font-size="7" font-family="MyriadPro-Regular, Myriad Pro"><tspan x="0" y="0"> </tspan></text>
      <text id="_19" data-name=" " transform="translate(21.504 75.972) rotate(-140.212)" fill="#edeeef" font-size="7" font-family="MyriadPro-Regular, Myriad Pro"><tspan x="0" y="0"> </tspan></text>
      <text id="_20" data-name=" " transform="matrix(-0.718, -0.697, 0.697, -0.718, 19.228, 74.062)" fill="#edeeef" font-size="7" font-family="MyriadPro-Regular, Myriad Pro"><tspan x="0" y="0"> </tspan></text>
      <text id="_21" data-name=" " transform="matrix(-0.662, -0.749, 0.749, -0.662, 17.085, 71.966)" fill="#edeeef" font-size="7" font-family="MyriadPro-Regular, Myriad Pro"><tspan x="0" y="0"> </tspan></text>
      <text id="_22" data-name=" " transform="matrix(-0.603, -0.798, 0.798, -0.603, 15.125, 69.73)" fill="#edeeef" font-size="7" font-family="MyriadPro-Regular, Myriad Pro"><tspan x="0" y="0"> </tspan></text>
      <text id="_23" data-name=" " transform="matrix(-0.54, -0.841, 0.841, -0.54, 13.336, 67.346)" fill="#edeeef" font-size="7" font-family="MyriadPro-Regular, Myriad Pro"><tspan x="0" y="0"> </tspan></text>
      <text id="_24" data-name=" " transform="translate(11.73 64.824) rotate(-118.295)" fill="#edeeef" font-size="7" font-family="MyriadPro-Regular, Myriad Pro"><tspan x="0" y="0"> </tspan></text>
      <text id="_25" data-name=" " transform="translate(10.329 62.197) rotate(-113.89)" fill="#edeeef" font-size="7" font-family="MyriadPro-Regular, Myriad Pro"><tspan x="0" y="0"> </tspan></text>
      <text id="_26" data-name=" " transform="matrix(-0.333, -0.943, 0.943, -0.333, 9.126, 59.453)" fill="#edeeef" font-size="7" font-family="MyriadPro-Regular, Myriad Pro"><tspan x="0" y="0"> </tspan></text>
      <text id="_27" data-name=" " transform="translate(8.15 56.656) rotate(-105.052)" fill="#edeeef" font-size="7" font-family="MyriadPro-Regular, Myriad Pro"><tspan x="0" y="0"> </tspan></text>
      <g id="Group_23" data-name="Group 23" transform="translate(0 0)">
        <g id="Group_22" data-name="Group 22" clip-path="url(#clip-path-2)">
          <text id="_28" data-name=" " transform="translate(7.385 53.768) rotate(-100.622)" fill="#edeeef" font-size="7" font-family="MyriadPro-Regular, Myriad Pro"><tspan x="0" y="0"> </tspan></text>
          <text id="_29" data-name=" " transform="matrix(-0.108, -0.994, 0.994, -0.108, 6.846, 50.826)" fill="#edeeef" font-size="7" font-family="MyriadPro-Regular, Myriad Pro"><tspan x="0" y="0"> </tspan></text>
          <text id="_30" data-name=" " transform="translate(6.533 47.843) rotate(-91.814)" fill="#edeeef" font-size="7" font-family="MyriadPro-Regular, Myriad Pro"><tspan x="0" y="0"> </tspan></text>
          <text id="P" transform="translate(9.386 44.945) rotate(-82.709)" fill="#fff" font-size="12" font-family="MyriadPro-Bold, Myriad Pro" font-weight="700"><tspan x="0" y="0">P</tspan></text>
          <text id="A" transform="translate(11.176 37.44) rotate(-69.139)" fill="#fff" font-size="13" font-family="MyriadPro-Bold, Myriad Pro" font-weight="700"><tspan x="0" y="0">A</tspan></text>
        </g>
      </g>
      <text id="P-2" data-name="P" transform="matrix(0.586, -0.811, 0.811, 0.586, 13.864, 27.861)" fill="#fff" font-size="12" font-family="MyriadPro-Bold, Myriad Pro" font-weight="700"><tspan x="0" y="0">P</tspan></text>
      <text id="E" transform="matrix(0.758, -0.652, 0.652, 0.758, 19.056, 20.782)" fill="#fff" font-size="12" font-family="MyriadPro-Bold, Myriad Pro" font-weight="700"><tspan x="0" y="0">E</tspan></text>
      <text id="R" transform="translate(25.191 15.462) rotate(-27.077)" fill="#fff" font-size="12" font-family="MyriadPro-Bold, Myriad Pro" font-weight="700"><tspan x="0" y="0">R</tspan></text>
      <text id="_31" data-name=" " transform="translate(32.906 10.694) rotate(-17.41)" fill="#edeeef" font-size="11" font-family="MyriadPro-Bold, Myriad Pro" font-weight="700"><tspan x="0" y="0"> </tspan></text>
      <g id="Group_25" data-name="Group 25" transform="translate(0 0)">
        <g id="Group_24" data-name="Group 24" clip-path="url(#clip-path)">
          <text id="_32" data-name=" " transform="translate(35.885 9.766) rotate(-12.507)" fill="#edeeef" font-size="11" font-family="MyriadPro-Bold, Myriad Pro" font-weight="700"><tspan x="0" y="0"> </tspan></text>
          <text id="C" transform="translate(39.115 9.837) rotate(-2.857)" fill="#fff" font-size="12" font-family="MyriadPro-Bold, Myriad Pro" font-weight="700"><tspan x="0" y="0">C</tspan></text>
          <text id="U" transform="translate(47.93 10.302) rotate(12.506)" fill="#fff" font-size="13" font-family="MyriadPro-Bold, Myriad Pro" font-weight="700"><tspan x="0" y="0">U</tspan></text>
        </g>
      </g>
      <text id="P-3" data-name="P" transform="translate(58.167 11.68) rotate(27.861)" fill="#fff" font-size="12" font-family="MyriadPro-Bold, Myriad Pro" font-weight="700"><tspan x="0" y="0">P</tspan></text>
      <text id="_33" data-name=" " transform="matrix(0.795, 0.607, -0.607, 0.795, 66.361, 15.17)" fill="#edeeef" font-size="11" font-family="MyriadPro-Bold, Myriad Pro" font-weight="700"><tspan x="0" y="0"> </tspan></text>
      <text id="_34" data-name=" " transform="translate(68.83 17.06) rotate(42.183)" fill="#edeeef" font-size="11" font-family="MyriadPro-Bold, Myriad Pro" font-weight="700"><tspan x="0" y="0"> </tspan></text>
      <text id="W" transform="matrix(0.582, 0.813, -0.813, 0.582, 70.523, 19.163)" fill="#fff" font-size="12" font-family="MyriadPro-Bold, Myriad Pro" font-weight="700"><tspan x="0" y="0">W</tspan></text>
      <g id="Group_27" data-name="Group 27" transform="translate(0 0)">
        <g id="Group_26" data-name="Group 26" clip-path="url(#clip-path-2)">
          <text id="A-2" data-name="A" transform="translate(76.758 29.818) rotate(71.835)" fill="#fff" font-size="13" font-family="MyriadPro-Bold, Myriad Pro" font-weight="700"><tspan x="0" y="0">A</tspan></text>
          <text id="L" transform="translate(80.642 38.961) rotate(86.011)" fill="#fff" font-size="12" font-family="MyriadPro-Bold, Myriad Pro" font-weight="700"><tspan x="0" y="0">L</tspan></text>
          <text id="A-3" data-name="A" transform="translate(80.305 46.632) rotate(100.172)" fill="#fff" font-size="13" font-family="MyriadPro-Bold, Myriad Pro" font-weight="700"><tspan x="0" y="0">A</tspan></text>
        </g>
      </g>
    </g>
    <path id="Path_3" data-name="Path 3" d="M1908.671,899.237s14.47,8.962,28.374,8.962,27.24-8.962,27.24-8.962l6.52,13.219s-17.326,10.51-34.594,10.51-34.477-10.51-34.477-10.51Z" transform="translate(-33.248 -407.124)" fill="#fff"/>
    <path id="Path_4" data-name="Path 4" d="M2117.928,871.976l13.933-10.48h-9.17v-8.574l-14.648,10.122,6.192,1.548Z" transform="translate(-181.205 -375.725)" fill="#fff"/>
    <path id="Path_5" data-name="Path 5" d="M2121.977,871.976l-13.933-10.48h9.17v-8.574l14.648,10.122-6.192,1.548Z" transform="translate(-252.763 -375.725)" fill="#fff"/>
    <g id="Group_19" data-name="Group 19" transform="translate(1882.933 447.383)">
      <path id="Path_6" data-name="Path 6" d="M2264.917,411.056l2.771,28.978a14.1,14.1,0,0,0,6.215,3.882c3.986,1.222,6.388,1.76,9.359,1.76a27.13,27.13,0,0,0,9.359-1.341,10.457,10.457,0,0,0,5.3-4.3l3.252-28.978,1.765-.179V402s-4.149-4.706-12.544-5.272a44.382,44.382,0,0,0-11.192,0,37.048,37.048,0,0,0-9.842,3.009l1.2,6.033-7.783-3.1v8.211Z" transform="translate(-2262.783 -396.352)" fill="#fff" stroke="#707070" stroke-width="2"/>
      <path id="Path_10" data-name="Path 10" d="M2291.732,501.206a37.89,37.89,0,0,1-18.658-20.7l1.373,15.392a24.177,24.177,0,0,0,7.81,4.174A39.8,39.8,0,0,0,2291.732,501.206Z" transform="translate(-2269.247 -452.198)" fill="#e8e6d9"/>
      <path id="Path_7" data-name="Path 7" d="M2282.29,411.613a45.441,45.441,0,0,0,25,.111s-1.261.329.364-.123c.274.149-.688,4.707-.688,4.707a61.655,61.655,0,0,1-12.062,1.438,47.275,47.275,0,0,1-11.582-1.66l-.607-2.407Z" transform="translate(-2275.035 -406.472)" fill="#e8e6d9"/>
      <path id="Path_8" data-name="Path 8" d="M2284.045,418.666s9.369,2.594,17.342,1.807a42.459,42.459,0,0,0,14.926-4.759" transform="translate(-2276.137 -409.201)" fill="none" stroke="#707070" stroke-width="2"/>
      <path id="Path_9" data-name="Path 9" d="M2316.782,440.11a50.774,50.774,0,0,1-14.45,2.768,49.483,49.483,0,0,1-14.416-2.3" transform="translate(-2278.568 -425.392)" fill="none" stroke="#707070" stroke-width="2"/>
    </g>
  </g>
</svg>
